<mxfile host="app.diagrams.net" agent="Mozilla/5.0 (Windows NT 10.0; Win64; x64) AppleWebKit/537.36 (KHTML, like Gecko) Chrome/134.0.0.0 Safari/537.36" version="26.1.1">
  <diagram name="Trang-1" id="NvOTL0_JshDGDPbDhjt7">
    <mxGraphModel dx="1834" dy="1329" grid="0" gridSize="10" guides="1" tooltips="1" connect="1" arrows="1" fold="1" page="0" pageScale="1" pageWidth="827" pageHeight="1169" math="0" shadow="0">
      <root>
        <mxCell id="0" />
        <mxCell id="1" parent="0" />
        <mxCell id="o4HzUzedOnX7ftMD8LCe-3" value="" style="edgeStyle=none;curved=1;rounded=0;orthogonalLoop=1;jettySize=auto;html=1;fontSize=12;startSize=8;endSize=8;" edge="1" parent="1" source="o4HzUzedOnX7ftMD8LCe-1" target="o4HzUzedOnX7ftMD8LCe-2">
          <mxGeometry relative="1" as="geometry" />
        </mxCell>
        <mxCell id="o4HzUzedOnX7ftMD8LCe-1" value="Bắt đầu chương trình" style="ellipse;whiteSpace=wrap;html=1;" vertex="1" parent="1">
          <mxGeometry x="-294" y="-36" width="80" height="80" as="geometry" />
        </mxCell>
        <mxCell id="o4HzUzedOnX7ftMD8LCe-5" value="" style="edgeStyle=none;curved=1;rounded=0;orthogonalLoop=1;jettySize=auto;html=1;fontSize=12;startSize=8;endSize=8;" edge="1" parent="1" source="o4HzUzedOnX7ftMD8LCe-2" target="o4HzUzedOnX7ftMD8LCe-4">
          <mxGeometry relative="1" as="geometry" />
        </mxCell>
        <mxCell id="o4HzUzedOnX7ftMD8LCe-2" value="Khởi tạo lớp Time, với thuộc tính và phương thức" style="whiteSpace=wrap;html=1;" vertex="1" parent="1">
          <mxGeometry x="-314" y="76" width="120" height="60" as="geometry" />
        </mxCell>
        <mxCell id="o4HzUzedOnX7ftMD8LCe-7" value="" style="edgeStyle=none;curved=1;rounded=0;orthogonalLoop=1;jettySize=auto;html=1;fontSize=12;startSize=8;endSize=8;" edge="1" parent="1" source="o4HzUzedOnX7ftMD8LCe-4" target="o4HzUzedOnX7ftMD8LCe-8">
          <mxGeometry relative="1" as="geometry">
            <mxPoint x="-254" y="296" as="targetPoint" />
          </mxGeometry>
        </mxCell>
        <mxCell id="o4HzUzedOnX7ftMD8LCe-4" value="Nhập thông tin ngày/tháng/năm" style="whiteSpace=wrap;html=1;" vertex="1" parent="1">
          <mxGeometry x="-314" y="186" width="120" height="60" as="geometry" />
        </mxCell>
        <mxCell id="o4HzUzedOnX7ftMD8LCe-9" style="edgeStyle=none;curved=0;rounded=0;orthogonalLoop=1;jettySize=auto;html=1;entryX=0;entryY=0.5;entryDx=0;entryDy=0;fontSize=12;startSize=8;endSize=8;strokeColor=none;" edge="1" parent="1" source="o4HzUzedOnX7ftMD8LCe-8" target="o4HzUzedOnX7ftMD8LCe-4">
          <mxGeometry relative="1" as="geometry">
            <Array as="points">
              <mxPoint x="-358" y="339" />
              <mxPoint x="-360" y="216" />
            </Array>
          </mxGeometry>
        </mxCell>
        <mxCell id="o4HzUzedOnX7ftMD8LCe-10" style="edgeStyle=none;curved=0;rounded=0;orthogonalLoop=1;jettySize=auto;html=1;entryX=0;entryY=0.5;entryDx=0;entryDy=0;fontSize=12;startSize=8;endSize=8;" edge="1" parent="1" source="o4HzUzedOnX7ftMD8LCe-8" target="o4HzUzedOnX7ftMD8LCe-4">
          <mxGeometry relative="1" as="geometry">
            <Array as="points">
              <mxPoint x="-377" y="339" />
              <mxPoint x="-377" y="218" />
            </Array>
          </mxGeometry>
        </mxCell>
        <mxCell id="o4HzUzedOnX7ftMD8LCe-11" value="Sai" style="edgeLabel;html=1;align=center;verticalAlign=middle;resizable=0;points=[];fontSize=12;" vertex="1" connectable="0" parent="o4HzUzedOnX7ftMD8LCe-10">
          <mxGeometry x="0.0893" y="-4" relative="1" as="geometry">
            <mxPoint as="offset" />
          </mxGeometry>
        </mxCell>
        <mxCell id="o4HzUzedOnX7ftMD8LCe-13" value="" style="edgeStyle=none;curved=1;rounded=0;orthogonalLoop=1;jettySize=auto;html=1;fontSize=12;startSize=8;endSize=8;" edge="1" parent="1" source="o4HzUzedOnX7ftMD8LCe-8" target="o4HzUzedOnX7ftMD8LCe-12">
          <mxGeometry relative="1" as="geometry" />
        </mxCell>
        <mxCell id="o4HzUzedOnX7ftMD8LCe-14" value="Đúng" style="edgeLabel;html=1;align=center;verticalAlign=middle;resizable=0;points=[];fontSize=12;" vertex="1" connectable="0" parent="o4HzUzedOnX7ftMD8LCe-13">
          <mxGeometry x="-0.2" y="-1" relative="1" as="geometry">
            <mxPoint as="offset" />
          </mxGeometry>
        </mxCell>
        <mxCell id="o4HzUzedOnX7ftMD8LCe-8" value="Kiểm tra tính hợp lệ" style="rhombus;whiteSpace=wrap;html=1;" vertex="1" parent="1">
          <mxGeometry x="-294" y="296" width="80" height="80" as="geometry" />
        </mxCell>
        <mxCell id="o4HzUzedOnX7ftMD8LCe-18" value="" style="edgeStyle=none;curved=1;rounded=0;orthogonalLoop=1;jettySize=auto;html=1;fontSize=12;startSize=8;endSize=8;" edge="1" parent="1" source="o4HzUzedOnX7ftMD8LCe-12" target="o4HzUzedOnX7ftMD8LCe-17">
          <mxGeometry relative="1" as="geometry" />
        </mxCell>
        <mxCell id="o4HzUzedOnX7ftMD8LCe-12" value="Tăng ngày lên một" style="whiteSpace=wrap;html=1;" vertex="1" parent="1">
          <mxGeometry x="-114" y="306" width="120" height="60" as="geometry" />
        </mxCell>
        <mxCell id="o4HzUzedOnX7ftMD8LCe-20" value="" style="edgeStyle=none;curved=1;rounded=0;orthogonalLoop=1;jettySize=auto;html=1;fontSize=12;startSize=8;endSize=8;" edge="1" parent="1" source="o4HzUzedOnX7ftMD8LCe-17" target="o4HzUzedOnX7ftMD8LCe-19">
          <mxGeometry relative="1" as="geometry" />
        </mxCell>
        <mxCell id="o4HzUzedOnX7ftMD8LCe-21" value="Đúng" style="edgeLabel;html=1;align=center;verticalAlign=middle;resizable=0;points=[];fontSize=12;" vertex="1" connectable="0" parent="o4HzUzedOnX7ftMD8LCe-20">
          <mxGeometry x="-0.1231" y="2" relative="1" as="geometry">
            <mxPoint as="offset" />
          </mxGeometry>
        </mxCell>
        <mxCell id="o4HzUzedOnX7ftMD8LCe-23" value="" style="edgeStyle=none;curved=1;rounded=0;orthogonalLoop=1;jettySize=auto;html=1;fontSize=12;startSize=8;endSize=8;" edge="1" parent="1" source="o4HzUzedOnX7ftMD8LCe-17" target="o4HzUzedOnX7ftMD8LCe-22">
          <mxGeometry relative="1" as="geometry" />
        </mxCell>
        <mxCell id="o4HzUzedOnX7ftMD8LCe-24" value="Sai" style="edgeLabel;html=1;align=center;verticalAlign=middle;resizable=0;points=[];fontSize=12;" vertex="1" connectable="0" parent="o4HzUzedOnX7ftMD8LCe-23">
          <mxGeometry x="-0.22" y="-3" relative="1" as="geometry">
            <mxPoint as="offset" />
          </mxGeometry>
        </mxCell>
        <mxCell id="o4HzUzedOnX7ftMD8LCe-17" value="Kiểm tra hợp lệ sau khi tăng" style="rhombus;whiteSpace=wrap;html=1;" vertex="1" parent="1">
          <mxGeometry x="-94" y="166" width="80" height="80" as="geometry" />
        </mxCell>
        <mxCell id="o4HzUzedOnX7ftMD8LCe-27" value="" style="edgeStyle=none;curved=1;rounded=0;orthogonalLoop=1;jettySize=auto;html=1;fontSize=12;startSize=8;endSize=8;" edge="1" parent="1" source="o4HzUzedOnX7ftMD8LCe-19" target="o4HzUzedOnX7ftMD8LCe-26">
          <mxGeometry relative="1" as="geometry" />
        </mxCell>
        <mxCell id="o4HzUzedOnX7ftMD8LCe-19" value="Xuất ra màn hình ngày/tháng/năm" style="whiteSpace=wrap;html=1;" vertex="1" parent="1">
          <mxGeometry x="-110" y="76" width="120" height="60" as="geometry" />
        </mxCell>
        <mxCell id="o4HzUzedOnX7ftMD8LCe-25" style="edgeStyle=none;curved=0;rounded=0;orthogonalLoop=1;jettySize=auto;html=1;entryX=1;entryY=0.5;entryDx=0;entryDy=0;fontSize=12;startSize=8;endSize=8;" edge="1" parent="1" source="o4HzUzedOnX7ftMD8LCe-22" target="o4HzUzedOnX7ftMD8LCe-19">
          <mxGeometry relative="1" as="geometry">
            <Array as="points">
              <mxPoint x="144" y="104" />
            </Array>
          </mxGeometry>
        </mxCell>
        <mxCell id="o4HzUzedOnX7ftMD8LCe-22" value="Thay đổi ngày tháng năm tương ứng" style="whiteSpace=wrap;html=1;" vertex="1" parent="1">
          <mxGeometry x="86" y="186" width="120" height="60" as="geometry" />
        </mxCell>
        <mxCell id="o4HzUzedOnX7ftMD8LCe-26" value="Kết thúc chương trình" style="ellipse;whiteSpace=wrap;html=1;" vertex="1" parent="1">
          <mxGeometry x="-94" y="-50" width="80" height="80" as="geometry" />
        </mxCell>
      </root>
    </mxGraphModel>
  </diagram>
</mxfile>
